P2
48 14
255
153 109 74 39 224 109 177 28 155 78 94 179 104 166 17 244 131 230 247 143 207 20 119 106 197 74 65 53 111 244 153 70 152 99 10 152 1 129 6 195 1 22 213 206 201 121 186 106
45 172 58 77 144 5 247 80 139 111 164 169 190 29 39 118 207 159 152 18 154 128 15 47 73 125 43 38 66 106 7 170 83 247 6 134 105 38 111 22 236 220 7 1 135 30 192 4
129 201 77 53 177 51 147 32 66 6 134 212 88 148 96 227 231 224 249 229 231 139 165 65 189 112 94 70 134 67 17 236 173 226 22 101 109 240 119 235 42 112 27 172 241 3 140 76
57 65 200 171 206 171 126 171 173 157 198 249 199 174 156 162 158 216 172 109 149 215 206 15 197 199 204 53 21 196 126 203 49 238 178 127 227 18 217 87 133 112 15 129 141 206 94 10
170 203 254 216 78 207 79 28 128 126 127 73 117 221 128 148 131 100 56 32 228 81 217 239 115 0 161 121 90 136 218 143 211 202 90 40 241 209 237 17 165 33 183 17 114 181 170 160
80 245 180 203 187 90 119 227 189 143 22 91 235 152 127 114 137 142 238 40 232 2 146 130 228 215 243 108 146 86 83 59 79 101 187 201 94 174 187 149 152 150 46 130 164 166 195 49
192 197 77 102 46 86 204 194 207 55 199 110 139 62 203 136 48 67 69 13 54 241 247 160 177 112 94 5 69 102 173 169 217 221 73 182 136 113 113 168 14 80 99 45 155 94 216 91
218 93 202 32 28 100 51 30 5 208 148 124 113 140 196 186 202 124 80 105 133 117 4 44 210 211 208 54 57 187 111 167 40 46 171 88 3 34 64 76 28 110 69 216 133 149 180 197
100 139 186 131 206 226 24 39 88 241 165 112 133 28 8 128 152 77 51 207 74 20 196 254 123 202 188 101 157 246 108 33 186 64 234 235 25 95 22 202 75 208 122 208 72 223 182 106
169 81 236 132 80 206 1 115 189 18 206 84 134 191 21 191 196 10 124 183 178 218 104 107 219 94 132 61 123 135 77 159 174 165 231 254 119 69 10 142 91 131 2 154 237 168 158 167
152 223 237 217 43 105 179 10 201 44 179 51 150 238 118 151 117 70 177 198 42 233 209 100 15 199 96 8 26 29 45 250 226 126 46 145 136 101 129 32 90 172 253 211 54 54 134 86
152 136 191 131 170 187 238 6 103 249 59 128 49 80 20 226 128 36 195 133 197 73 78 143 253 151 174 67 203 72 50 240 87 102 235 173 159 191 218 209 65 55 57 199 99 130 126 12
212 187 75 132 195 30 60 217 142 190 16 137 227 231 21 47 11 29 175 217 109 213 27 170 190 129 178 203 169 254 249 87 89 212 235 206 232 101 96 135 89 162 79 229 47 61 175 86
253 86 181 101 43 191 105 175 128 146 10 63 52 156 250 60 174 136 65 162 234 152 141 43 229 253 87 196 68 172 80 43 51 163 112 17 9 235 73 120 132 87 197 190 242 161 91 202