P2
12 4
255
252 42 171 115 188 244 89 13 162 208 159 144
57 73 200 157 11 96 227 248 208 201 34 241
101 69 151 207 113 134 11 136 165 204 236 103
39 153 64 177 23 199 239 30 212 186 17 74